<?xml version="1.0" encoding="UTF-8" standalone="no"?>
<!-- Created with Inkscape (http://www.inkscape.org/) -->

<svg
   version="1.1"
   id="svg1"
   width="273.42133"
   height="290.47733"
   viewBox="0 0 273.42133 290.47733"
   xmlns="http://www.w3.org/2000/svg"
   xmlns:svg="http://www.w3.org/2000/svg">
  <defs
     id="defs1" />
  <g
     id="g1">
    <path
       id="path1"
       d="M -85.04042,-85.04042 H 85.04042 m -170.08084,28.3468 H 85.04042 M -85.04042,-28.3468 H 85.04042 M -85.04042,0 H 85.04042 M -85.04042,28.3468 H 85.04042 M -85.04042,56.69362 H 85.04042 M -85.04042,85.03047 H 85.04042 M -85.04042,-85.04042 V 85.04042 m 28.3468,-170.08084 V 85.04042 M -28.3468,-85.04042 V 85.04042 M 0,-85.04042 V 85.04042 M 28.3468,-85.04042 V 85.04042 M 56.69362,-85.04042 V 85.04042 M 85.03047,-85.04042 V 85.04042"
       style="fill:none;stroke:#808080;stroke-width:0.19925;stroke-linecap:butt;stroke-linejoin:miter;stroke-miterlimit:10;stroke-dasharray:none;stroke-opacity:1"
       transform="matrix(1.3333333,0,0,-1.3333333,132.01733,135.78933)" />
    <path
       id="path2"
       d="M -85.04042,0 H 84.58214"
       style="fill:none;stroke:#000000;stroke-width:0.3985;stroke-linecap:butt;stroke-linejoin:miter;stroke-miterlimit:10;stroke-dasharray:none;stroke-opacity:1"
       transform="matrix(1.3333333,0,0,-1.3333333,132.01733,135.78933)" />
    <path
       id="path3"
       d="M -1.19551,1.59401 C -1.09587,0.99626 0,0.09961 0.29886,0 0,-0.09961 -1.09587,-0.99626 -1.19551,-1.59401"
       style="fill:none;stroke:#000000;stroke-width:0.31879;stroke-linecap:round;stroke-linejoin:round;stroke-miterlimit:10;stroke-dasharray:none;stroke-opacity:1"
       transform="matrix(1.3333333,0,0,-1.3333333,244.79352,135.78933)" />
    <path
       id="path4"
       d="m 3.3293672,-3.0123906 c 0.058594,-0.2578125 0.2929687,-1.171875 0.984375,-1.171875 0.046875,0 0.2929687,0 0.5039062,0.1289062 -0.28125,0.046875 -0.4804687,0.3046875 -0.4804687,0.5390625 0,0.1640625 0.1054687,0.3515625 0.375,0.3515625 0.2226562,0 0.5390625,-0.1875 0.5390625,-0.5859375 0,-0.515625 -0.5859375,-0.65625 -0.9257813,-0.65625 -0.5742187,0 -0.9257812,0.5273438 -1.0429687,0.7617188 -0.2578125,-0.65625 -0.7851563,-0.7617188 -1.078125,-0.7617188 -1.0429688,0 -1.60546876,1.2890625 -1.60546876,1.5351563 0,0.1054687 0.10546875,0.1054687 0.1171875,0.1054687 0.0820313,0 0.1171875,-0.023437 0.12890625,-0.1171875 0.33984371,-1.0546875 0.99609371,-1.3007812 1.33593751,-1.3007812 0.1875,0 0.5390625,0.09375 0.5390625,0.6679687 0,0.3046875 -0.1640625,0.9726563 -0.5390625,2.3671875 -0.1523438,0.62109377 -0.5039063,1.04296877 -0.9492188,1.04296877 -0.058594,0 -0.28124996,0 -0.49218746,-0.12890625 0.24609375,-0.0585938 0.46874996,-0.26953125 0.46874996,-0.5390625 0,-0.26953122 -0.22265621,-0.35156252 -0.37499996,-0.35156252 -0.29296875,0 -0.5390625,0.25781252 -0.5390625,0.57421877 0,0.45703125 0.4921875,0.65625 0.93749996,0.65625 0.65625,0 1.0078125,-0.69140625 1.0429688,-0.75 0.1171875,0.36328125 0.4804687,0.75 1.078125,0.75 1.0195312,0 1.59375,-1.27734377 1.59375,-1.53515627 0,-0.09375 -0.09375,-0.09375 -0.1289063,-0.09375 -0.082031,0 -0.1054687,0.035156 -0.1289062,0.1054688 -0.328125,1.06640622 -0.9960938,1.31249997 -1.3242188,1.31249997 -0.3867187,0 -0.5390625,-0.328125 -0.5390625,-0.65625 0,-0.22265625 0.058594,-0.44531247 0.1640625,-0.87890627 z m 0,0"
       style="fill:#000000;fill-opacity:1;fill-rule:nonzero;stroke:none"
       aria-label="x"
       transform="matrix(1.3333333,0,0,1.3333333,250.096,138.64933)" />
    <path
       id="path5"
       d="M 0,-85.04042 V 84.58214"
       style="fill:none;stroke:#000000;stroke-width:0.3985;stroke-linecap:butt;stroke-linejoin:miter;stroke-miterlimit:10;stroke-dasharray:none;stroke-opacity:1"
       transform="matrix(1.3333333,0,0,-1.3333333,132.01733,135.78933)" />
    <path
       id="path6"
       d="M -1.19551,1.59401 C -1.09587,0.99626 0,0.09961 0.29886,0 0,-0.09961 -1.09587,-0.99626 -1.19551,-1.59401"
       style="fill:none;stroke:#000000;stroke-width:0.31879;stroke-linecap:round;stroke-linejoin:round;stroke-miterlimit:10;stroke-dasharray:none;stroke-opacity:1"
       transform="matrix(0,-1.3333333,-1.3333333,0,132.01733,23.013147)" />
    <g
       id="g6"
       aria-label="f(x)=⌊x⌋"
       transform="matrix(1.3333333,0,0,1.3333333,136.71067,14.390667)">
      <path
         id="path7"
         d="m 3.6564531,-3.9844063 h 0.8554688 c 0.1992187,0 0.3046875,0 0.3046875,-0.1992187 0,-0.1054688 -0.1054688,-0.1054688 -0.2695313,-0.1054688 H 3.7150469 l 0.2109375,-1.1367187 c 0.035156,-0.2109375 0.1757812,-0.9140625 0.234375,-1.0429688 0.09375,-0.1875 0.2578125,-0.3398437 0.46875,-0.3398437 0.046875,0 0.3046875,0 0.4921875,0.1875 -0.4335938,0.035156 -0.5390625,0.3867187 -0.5390625,0.5390625 0,0.2226562 0.1757812,0.3398437 0.3632812,0.3398437 0.2695313,0 0.5507813,-0.2109375 0.5507813,-0.5976562 0,-0.4570313 -0.4570313,-0.6796875 -0.8671875,-0.6796875 -0.3398438,0 -0.9609375,0.1757812 -1.265625,1.1601562 -0.058594,0.2109375 -0.082031,0.3164063 -0.328125,1.5703125 H 2.3556719 c -0.1992188,0 -0.3046875,0 -0.3046875,0.1875 0,0.1171875 0.09375,0.1171875 0.28125,0.1171875 h 0.65625 l -0.75,3.93750005 C 2.0627031,0.91403125 1.8986406,1.8280937 1.3712969,1.8280937 c -0.035156,0 -0.28125,0 -0.46875003,-0.1875 C 1.3595781,1.6171562 1.4416094,1.253875 1.4416094,1.1015312 c 0,-0.2226562 -0.1757813,-0.3398437 -0.3632813,-0.3398437 -0.25781248,0 -0.55078123,0.2109375 -0.55078123,0.5976562 0,0.4453125 0.43359375,0.6796875 0.84375003,0.6796875 0.5507812,0 0.9492187,-0.5859375 1.125,-0.9609375 0.328125,-0.63281245 0.5507812,-1.8398437 0.5625,-1.9101562 z m 0,0"
         style="fill:#0000ff;fill-opacity:1;fill-rule:nonzero;stroke:none" />
      <path
         id="path8"
         d="m 9.2433672,2.3905937 c 0,-0.035156 0,-0.046875 -0.1640625,-0.2226562 C 7.8371172,0.91403125 7.5089922,-0.96096875 7.5089922,-2.496125 c 0,-1.7226563 0.3867187,-3.4570313 1.6054687,-4.7109375 0.1289063,-0.1171875 0.1289063,-0.1289063 0.1289063,-0.1640625 0,-0.070312 -0.035156,-0.1054688 -0.09375,-0.1054688 -0.1054688,0 -0.9960938,0.6796875 -1.5820313,1.9453125 -0.515625,1.1015625 -0.6328125,2.203125 -0.6328125,3.0351563 0,0.7851562 0.1171875,1.9921875 0.65625,3.1171875 0.5976563,1.21875 1.453125,1.875 1.5585938,1.875 0.058594,0 0.09375,-0.035156 0.09375,-0.1054688 z m 0,0"
         style="fill:#0000ff;fill-opacity:1;fill-rule:nonzero;stroke:none" />
      <path
         id="path9"
         d="m 13.15157,-3.01175 c 0.05859,-0.2578125 0.292969,-1.171875 0.984375,-1.171875 0.04687,0 0.292969,0 0.503907,0.1289062 -0.28125,0.046875 -0.480469,0.3046875 -0.480469,0.5390625 0,0.1640625 0.105469,0.3515625 0.375,0.3515625 0.222656,0 0.539062,-0.1875 0.539062,-0.5859375 0,-0.515625 -0.585937,-0.65625 -0.925781,-0.65625 -0.574219,0 -0.925781,0.5273438 -1.042969,0.7617188 -0.257812,-0.65625 -0.785156,-0.7617188 -1.078125,-0.7617188 -1.042968,0 -1.605468,1.2890625 -1.605468,1.5351563 0,0.1054687 0.105468,0.1054687 0.117187,0.1054687 0.08203,0 0.117188,-0.023437 0.128906,-0.1171875 0.339844,-1.0546875 0.996094,-1.3007812 1.335938,-1.3007812 0.1875,0 0.539062,0.09375 0.539062,0.6679687 0,0.3046875 -0.164062,0.9726563 -0.539062,2.3671875 -0.152344,0.6210938 -0.503906,1.0429688 -0.949219,1.0429688 -0.05859,0 -0.28125,0 -0.492187,-0.12890625 0.246093,-0.0585937 0.46875,-0.26953125 0.46875,-0.5390625 0,-0.26953125 -0.222657,-0.35156255 -0.375,-0.35156255 -0.292969,0 -0.539063,0.25781255 -0.539063,0.5742188 0,0.45703125 0.492188,0.65625 0.9375,0.65625 0.65625,0 1.007813,-0.69140625 1.042969,-0.75 0.117187,0.36328125 0.480469,0.75 1.078125,0.75 1.019531,0 1.59375,-1.2773438 1.59375,-1.5351563 0,-0.09375 -0.09375,-0.09375 -0.128906,-0.09375 -0.08203,0 -0.105469,0.035156 -0.128907,0.1054688 -0.328125,1.06640625 -0.996093,1.3125 -1.324218,1.3125 -0.386719,0 -0.539063,-0.328125 -0.539063,-0.65625 0,-0.22265625 0.05859,-0.4453125 0.164063,-0.8789063 z m 0,0"
         style="fill:#0000ff;fill-opacity:1;fill-rule:nonzero;stroke:none" />
      <path
         id="path10"
         d="m 18.40157,-2.496125 c 0,-0.7734375 -0.117187,-1.9804688 -0.65625,-3.1054688 -0.597656,-1.21875 -1.464843,-1.875 -1.558593,-1.875 -0.05859,0 -0.105469,0.046875 -0.105469,0.1054688 0,0.035156 0,0.046875 0.199219,0.234375 0.972656,0.984375 1.535156,2.5664062 1.535156,4.640625 0,1.7109375 -0.363281,3.45703125 -1.59375,4.7226562 -0.140625,0.1171875 -0.140625,0.1289063 -0.140625,0.1640625 0,0.058594 0.04687,0.1054688 0.105469,0.1054688 0.09375,0 0.996093,-0.6796875 1.582031,-1.9453125 0.503906,-1.1015625 0.632812,-2.203125 0.632812,-3.046875 z m 10.605469,-0.7617188 c 0.152344,0 0.339844,0 0.339844,-0.1992187 0,-0.1992188 -0.1875,-0.1992188 -0.328125,-0.1992188 h -5.964844 c -0.140625,0 -0.328125,0 -0.328125,0.1992188 0,0.1992187 0.1875,0.1992187 0.339844,0.1992187 z m 0.01172,1.9335938 c 0.140625,0 0.328125,0 0.328125,-0.1992188 0,-0.1992187 -0.1875,-0.1992187 -0.339844,-0.1992187 h -5.941406 c -0.152344,0 -0.339844,0 -0.339844,0.1992187 0,0.1992188 0.1875,0.1992188 0.328125,0.1992188 z m 0,0"
         style="fill:#0000ff;fill-opacity:1;fill-rule:nonzero;stroke:none" />
      <path
         id="path11"
         d="m 36.518758,2.4960625 c 0.152344,0 0.363281,0 0.363281,-0.1992188 0,-0.1992187 -0.210937,-0.1992187 -0.363281,-0.1992187 H 34.80782 v -9.2109375 c 0,-0.1757813 0,-0.3632813 -0.199218,-0.3632813 -0.199219,0 -0.199219,0.2109375 -0.199219,0.3632813 v 9.2460937 c 0,0.3164063 0.03516,0.3632813 0.363281,0.3632813 z m 0,0"
         style="fill:#0000ff;fill-opacity:1;fill-rule:nonzero;stroke:none" />
      <path
         id="path12"
         d="m 40.43282,-3.01175 c 0.05859,-0.2578125 0.292969,-1.171875 0.984375,-1.171875 0.04687,0 0.292969,0 0.503907,0.1289062 -0.28125,0.046875 -0.480469,0.3046875 -0.480469,0.5390625 0,0.1640625 0.105469,0.3515625 0.375,0.3515625 0.222656,0 0.539062,-0.1875 0.539062,-0.5859375 0,-0.515625 -0.585937,-0.65625 -0.925781,-0.65625 -0.574219,0 -0.925781,0.5273438 -1.042969,0.7617188 -0.257812,-0.65625 -0.785156,-0.7617188 -1.078125,-0.7617188 -1.042968,0 -1.605468,1.2890625 -1.605468,1.5351563 0,0.1054687 0.105468,0.1054687 0.117187,0.1054687 0.08203,0 0.117188,-0.023437 0.128906,-0.1171875 0.339844,-1.0546875 0.996094,-1.3007812 1.335938,-1.3007812 0.1875,0 0.539062,0.09375 0.539062,0.6679687 0,0.3046875 -0.164062,0.9726563 -0.539062,2.3671875 -0.152344,0.6210938 -0.503906,1.0429688 -0.949219,1.0429688 -0.05859,0 -0.28125,0 -0.492187,-0.12890625 0.246093,-0.0585937 0.46875,-0.26953125 0.46875,-0.5390625 0,-0.26953125 -0.222657,-0.35156255 -0.375,-0.35156255 -0.292969,0 -0.539063,0.25781255 -0.539063,0.5742188 0,0.45703125 0.492188,0.65625 0.9375,0.65625 0.65625,0 1.007813,-0.69140625 1.042969,-0.75 0.117187,0.36328125 0.480469,0.75 1.078125,0.75 1.019531,0 1.59375,-1.2773438 1.59375,-1.5351563 0,-0.09375 -0.09375,-0.09375 -0.128906,-0.09375 -0.08203,0 -0.105469,0.035156 -0.128907,0.1054688 -0.328125,1.06640625 -0.996093,1.3125 -1.324218,1.3125 -0.386719,0 -0.539063,-0.328125 -0.539063,-0.65625 0,-0.22265625 0.05859,-0.4453125 0.164063,-0.8789063 z m 0,0"
         style="fill:#0000ff;fill-opacity:1;fill-rule:nonzero;stroke:none" />
      <path
         id="path13"
         d="m 45.480672,-7.1133125 c 0,-0.1757813 0,-0.3632813 -0.199219,-0.3632813 -0.199219,0 -0.199219,0.2109375 -0.199219,0.3632813 V 2.097625 h -1.722656 c -0.140625,0 -0.351562,0 -0.351562,0.1992187 0,0.1992188 0.210937,0.1992188 0.351562,0.1992188 h 1.769531 c 0.316407,0 0.351563,-0.035156 0.351563,-0.3632813 z m 0,0"
         style="fill:#0000ff;fill-opacity:1;fill-rule:nonzero;stroke:none" />
    </g>
    <g
       id="g13"
       aria-label="f(x)=x"
       transform="matrix(1.3333333,0,0,1.3333333,76.165333,14.390667)">
      <path
         id="path14"
         d="m 3.6552969,-3.9844063 h 0.8554687 c 0.1992188,0 0.3046875,0 0.3046875,-0.1992187 0,-0.1054688 -0.1054687,-0.1054688 -0.2695312,-0.1054688 H 3.7138906 l 0.2109375,-1.1367187 c 0.035156,-0.2109375 0.1757813,-0.9140625 0.234375,-1.0429688 0.09375,-0.1875 0.2578125,-0.3398437 0.46875,-0.3398437 0.046875,0 0.3046875,0 0.4921875,0.1875 -0.4335937,0.035156 -0.5390625,0.3867187 -0.5390625,0.5390625 0,0.2226562 0.1757813,0.3398437 0.3632813,0.3398437 0.2695312,0 0.5507812,-0.2109375 0.5507812,-0.5976562 0,-0.4570313 -0.4570312,-0.6796875 -0.8671875,-0.6796875 -0.3398437,0 -0.9609375,0.1757812 -1.265625,1.1601562 -0.058594,0.2109375 -0.082031,0.3164063 -0.328125,1.5703125 H 2.3545156 c -0.1992187,0 -0.3046875,0 -0.3046875,0.1875 0,0.1171875 0.09375,0.1171875 0.28125,0.1171875 h 0.65625 l -0.75,3.93750005 C 2.0615469,0.91403125 1.8974844,1.8280937 1.3701406,1.8280937 c -0.035156,0 -0.28125,0 -0.46874998,-0.1875 C 1.3584219,1.6171562 1.4404531,1.253875 1.4404531,1.1015312 c 0,-0.2226562 -0.1757812,-0.3398437 -0.3632812,-0.3398437 -0.25781253,0 -0.55078128,0.2109375 -0.55078128,0.5976562 0,0.4453125 0.43359375,0.6796875 0.84374998,0.6796875 0.5507813,0 0.9492188,-0.5859375 1.125,-0.9609375 0.328125,-0.63281245 0.5507813,-1.8398437 0.5625,-1.9101562 z m 0,0"
         style="fill:#ff0000;fill-opacity:1;fill-rule:nonzero;stroke:none" />
      <path
         id="path15"
         d="m 9.2422109,2.3905937 c 0,-0.035156 0,-0.046875 -0.1640625,-0.2226562 C 7.8359609,0.91403125 7.5078359,-0.96096875 7.5078359,-2.496125 c 0,-1.7226563 0.3867188,-3.4570313 1.6054688,-4.7109375 0.1289062,-0.1171875 0.1289062,-0.1289063 0.1289062,-0.1640625 0,-0.070312 -0.035156,-0.1054688 -0.09375,-0.1054688 -0.1054687,0 -0.9960937,0.6796875 -1.5820312,1.9453125 -0.515625,1.1015625 -0.6328125,2.203125 -0.6328125,3.0351563 0,0.7851562 0.1171875,1.9921875 0.65625,3.1171875 0.5976562,1.21875 1.453125,1.875 1.5585937,1.875 0.058594,0 0.09375,-0.035156 0.09375,-0.1054688 z m 0,0"
         style="fill:#ff0000;fill-opacity:1;fill-rule:nonzero;stroke:none" />
      <path
         id="path16"
         d="m 13.153344,-3.01175 c 0.05859,-0.2578125 0.292968,-1.171875 0.984375,-1.171875 0.04687,0 0.292968,0 0.503906,0.1289062 -0.28125,0.046875 -0.480469,0.3046875 -0.480469,0.5390625 0,0.1640625 0.105469,0.3515625 0.375,0.3515625 0.222656,0 0.539063,-0.1875 0.539063,-0.5859375 0,-0.515625 -0.585938,-0.65625 -0.925782,-0.65625 -0.574218,0 -0.925781,0.5273438 -1.042968,0.7617188 -0.257813,-0.65625 -0.785157,-0.7617188 -1.078125,-0.7617188 -1.042969,0 -1.605469,1.2890625 -1.605469,1.5351563 0,0.1054687 0.105469,0.1054687 0.117187,0.1054687 0.08203,0 0.117188,-0.023437 0.128907,-0.1171875 0.339843,-1.0546875 0.996093,-1.3007812 1.335937,-1.3007812 0.1875,0 0.539063,0.09375 0.539063,0.6679687 0,0.3046875 -0.164063,0.9726563 -0.539063,2.3671875 C 11.852562,-0.527375 11.501,-0.1055 11.055687,-0.1055 c -0.05859,0 -0.28125,0 -0.492187,-0.12890625 0.246094,-0.0585937 0.46875,-0.26953125 0.46875,-0.5390625 0,-0.26953125 -0.222656,-0.35156255 -0.375,-0.35156255 -0.292969,0 -0.539063,0.25781255 -0.539063,0.5742188 0,0.45703125 0.492188,0.65625 0.9375,0.65625 0.65625,0 1.007813,-0.69140625 1.042969,-0.75 0.117188,0.36328125 0.480469,0.75 1.078125,0.75 1.019531,0 1.59375,-1.2773438 1.59375,-1.5351563 0,-0.09375 -0.09375,-0.09375 -0.128906,-0.09375 -0.08203,0 -0.105469,0.035156 -0.128906,0.1054688 -0.328125,1.06640625 -0.996094,1.3125 -1.324219,1.3125 -0.386719,0 -0.539063,-0.328125 -0.539063,-0.65625 0,-0.22265625 0.05859,-0.4453125 0.164063,-0.8789063 z m 0,0"
         style="fill:#ff0000;fill-opacity:1;fill-rule:nonzero;stroke:none" />
      <path
         id="path17"
         d="m 18.400414,-2.496125 c 0,-0.7734375 -0.117187,-1.9804688 -0.65625,-3.1054688 -0.597656,-1.21875 -1.464844,-1.875 -1.558594,-1.875 -0.05859,0 -0.105468,0.046875 -0.105468,0.1054688 0,0.035156 0,0.046875 0.199218,0.234375 0.972657,0.984375 1.535157,2.5664062 1.535157,4.640625 0,1.7109375 -0.363282,3.45703125 -1.59375,4.7226562 -0.140625,0.1171875 -0.140625,0.1289063 -0.140625,0.1640625 0,0.058594 0.04687,0.1054688 0.105468,0.1054688 0.09375,0 0.996094,-0.6796875 1.582032,-1.9453125 0.503906,-1.1015625 0.632812,-2.203125 0.632812,-3.046875 z m 10.605469,-0.7617188 c 0.152344,0 0.339844,0 0.339844,-0.1992187 0,-0.1992188 -0.1875,-0.1992188 -0.328125,-0.1992188 h -5.964844 c -0.140625,0 -0.328125,0 -0.328125,0.1992188 0,0.1992187 0.1875,0.1992187 0.339844,0.1992187 z m 0.01172,1.9335938 c 0.140625,0 0.328125,0 0.328125,-0.1992188 0,-0.1992187 -0.1875,-0.1992187 -0.339844,-0.1992187 h -5.941406 c -0.152344,0 -0.339844,0 -0.339844,0.1992187 0,0.1992188 0.1875,0.1992188 0.328125,0.1992188 z m 0,0"
         style="fill:#ff0000;fill-opacity:1;fill-rule:nonzero;stroke:none" />
      <path
         id="path18"
         d="m 36.004906,-3.01175 c 0.05859,-0.2578125 0.292969,-1.171875 0.984375,-1.171875 0.04687,0 0.292969,0 0.503906,0.1289062 -0.28125,0.046875 -0.480468,0.3046875 -0.480468,0.5390625 0,0.1640625 0.105468,0.3515625 0.375,0.3515625 0.222656,0 0.539062,-0.1875 0.539062,-0.5859375 0,-0.515625 -0.585937,-0.65625 -0.925781,-0.65625 -0.574219,0 -0.925781,0.5273438 -1.042969,0.7617188 -0.257812,-0.65625 -0.785156,-0.7617188 -1.078125,-0.7617188 -1.042969,0 -1.605469,1.2890625 -1.605469,1.5351563 0,0.1054687 0.105469,0.1054687 0.117188,0.1054687 0.08203,0 0.117187,-0.023437 0.128906,-0.1171875 0.339844,-1.0546875 0.996094,-1.3007812 1.335938,-1.3007812 0.1875,0 0.539062,0.09375 0.539062,0.6679687 0,0.3046875 -0.164062,0.9726563 -0.539062,2.3671875 C 34.704125,-0.527375 34.352562,-0.1055 33.90725,-0.1055 c -0.05859,0 -0.28125,0 -0.492188,-0.12890625 0.246094,-0.0585937 0.46875,-0.26953125 0.46875,-0.5390625 0,-0.26953125 -0.222656,-0.35156255 -0.375,-0.35156255 -0.292968,0 -0.539062,0.25781255 -0.539062,0.5742188 0,0.45703125 0.492187,0.65625 0.9375,0.65625 0.65625,0 1.007812,-0.69140625 1.042969,-0.75 0.117187,0.36328125 0.480468,0.75 1.078125,0.75 1.019531,0 1.59375,-1.2773438 1.59375,-1.5351563 0,-0.09375 -0.09375,-0.09375 -0.128907,-0.09375 -0.08203,0 -0.105468,0.035156 -0.128906,0.1054688 -0.328125,1.06640625 -0.996094,1.3125 -1.324219,1.3125 -0.386718,0 -0.539062,-0.328125 -0.539062,-0.65625 0,-0.22265625 0.05859,-0.4453125 0.164062,-0.8789063 z m 0,0"
         style="fill:#ff0000;fill-opacity:1;fill-rule:nonzero;stroke:none" />
    </g>
    <path
       id="path19"
       d="M -85.04042,-85.04042 85.04042,85.04042"
       style="fill:none;stroke:#ff0000;stroke-width:0.3985;stroke-linecap:butt;stroke-linejoin:miter;stroke-miterlimit:10;stroke-dasharray:none;stroke-opacity:1"
       transform="matrix(1.3333333,0,0,-1.3333333,132.01733,135.78933)" />
    <path
       id="path20"
       d="m -85.04042,-85.04042 h 26.26329"
       style="fill:none;stroke:#0000ff;stroke-width:0.79701;stroke-linecap:butt;stroke-linejoin:miter;stroke-miterlimit:10;stroke-dasharray:none;stroke-opacity:1"
       transform="matrix(1.3333333,0,0,-1.3333333,132.01733,135.78933)" />
    <path
       id="path21"
       d="m -82.9569,-85.04042 c 0,1.1507 -0.93282,2.08352 -2.08352,2.08352 -1.1507,0 -2.08353,-0.93282 -2.08353,-2.08352 0,-1.1507 0.93283,-2.08353 2.08353,-2.08353 1.1507,0 2.08352,0.93283 2.08352,2.08353 z"
       style="fill:#0000ff;fill-opacity:1;fill-rule:nonzero;stroke:#0000ff;stroke-width:0.79701;stroke-linecap:butt;stroke-linejoin:miter;stroke-miterlimit:10;stroke-dasharray:none;stroke-opacity:1"
       transform="matrix(1.3333333,0,0,-1.3333333,132.01733,135.78933)" />
    <path
       id="path22"
       d="m -54.61009,-85.04042 c 0,1.1507 -0.93282,2.08352 -2.08353,2.08352 -1.15069,0 -2.08351,-0.93282 -2.08351,-2.08352 0,-1.1507 0.93282,-2.08353 2.08351,-2.08353 1.15071,0 2.08353,0.93283 2.08353,2.08353 z"
       style="fill:none;stroke:#0000ff;stroke-width:0.79701;stroke-linecap:butt;stroke-linejoin:miter;stroke-miterlimit:10;stroke-dasharray:none;stroke-opacity:1"
       transform="matrix(1.3333333,0,0,-1.3333333,132.01733,135.78933)" />
    <path
       id="path23"
       d="m -56.69362,-56.69362 h 26.26329"
       style="fill:none;stroke:#0000ff;stroke-width:0.79701;stroke-linecap:butt;stroke-linejoin:miter;stroke-miterlimit:10;stroke-dasharray:none;stroke-opacity:1"
       transform="matrix(1.3333333,0,0,-1.3333333,132.01733,135.78933)" />
    <path
       id="path24"
       d="m -54.61009,-56.69362 c 0,1.15071 -0.93282,2.08353 -2.08353,2.08353 -1.15069,0 -2.08351,-0.93282 -2.08351,-2.08353 0,-1.15069 0.93282,-2.08351 2.08351,-2.08351 1.15071,0 2.08353,0.93282 2.08353,2.08351 z"
       style="fill:#0000ff;fill-opacity:1;fill-rule:nonzero;stroke:#0000ff;stroke-width:0.79701;stroke-linecap:butt;stroke-linejoin:miter;stroke-miterlimit:10;stroke-dasharray:none;stroke-opacity:1"
       transform="matrix(1.3333333,0,0,-1.3333333,132.01733,135.78933)" />
    <path
       id="path25"
       d="m -26.26328,-56.69362 c 0,1.15071 -0.93282,2.08353 -2.08352,2.08353 -1.1507,0 -2.08353,-0.93282 -2.08353,-2.08353 0,-1.15069 0.93283,-2.08351 2.08353,-2.08351 1.1507,0 2.08352,0.93282 2.08352,2.08351 z"
       style="fill:none;stroke:#0000ff;stroke-width:0.79701;stroke-linecap:butt;stroke-linejoin:miter;stroke-miterlimit:10;stroke-dasharray:none;stroke-opacity:1"
       transform="matrix(1.3333333,0,0,-1.3333333,132.01733,135.78933)" />
    <path
       id="path26"
       d="M -28.3468,-28.3468 H -2.08351"
       style="fill:none;stroke:#0000ff;stroke-width:0.79701;stroke-linecap:butt;stroke-linejoin:miter;stroke-miterlimit:10;stroke-dasharray:none;stroke-opacity:1"
       transform="matrix(1.3333333,0,0,-1.3333333,132.01733,135.78933)" />
    <path
       id="path27"
       d="m -26.26328,-28.3468 c 0,1.1507 -0.93282,2.08352 -2.08352,2.08352 -1.1507,0 -2.08353,-0.93282 -2.08353,-2.08352 0,-1.1507 0.93283,-2.08353 2.08353,-2.08353 1.1507,0 2.08352,0.93283 2.08352,2.08353 z"
       style="fill:#0000ff;fill-opacity:1;fill-rule:nonzero;stroke:#0000ff;stroke-width:0.79701;stroke-linecap:butt;stroke-linejoin:miter;stroke-miterlimit:10;stroke-dasharray:none;stroke-opacity:1"
       transform="matrix(1.3333333,0,0,-1.3333333,132.01733,135.78933)" />
    <path
       id="path28"
       d="m 2.08351,-28.3468 c 0,1.1507 -0.93281,2.08352 -2.08351,2.08352 -1.1507,0 -2.08351,-0.93282 -2.08351,-2.08352 0,-1.1507 0.93281,-2.08353 2.08351,-2.08353 1.1507,0 2.08351,0.93283 2.08351,2.08353 z"
       style="fill:none;stroke:#0000ff;stroke-width:0.79701;stroke-linecap:butt;stroke-linejoin:miter;stroke-miterlimit:10;stroke-dasharray:none;stroke-opacity:1"
       transform="matrix(1.3333333,0,0,-1.3333333,132.01733,135.78933)" />
    <path
       id="path29"
       d="M 0,0 H 26.26326"
       style="fill:none;stroke:#0000ff;stroke-width:0.79701;stroke-linecap:butt;stroke-linejoin:miter;stroke-miterlimit:10;stroke-dasharray:none;stroke-opacity:1"
       transform="matrix(1.3333333,0,0,-1.3333333,132.01733,135.78933)" />
    <path
       id="path30"
       d="M 2.08351,0 C 2.08351,1.1507 1.1507,2.08351 0,2.08351 -1.1507,2.08351 -2.08351,1.1507 -2.08351,0 c 0,-1.1507 0.93281,-2.08351 2.08351,-2.08351 1.1507,0 2.08351,0.93281 2.08351,2.08351 z"
       style="fill:#0000ff;fill-opacity:1;fill-rule:nonzero;stroke:#0000ff;stroke-width:0.79701;stroke-linecap:butt;stroke-linejoin:miter;stroke-miterlimit:10;stroke-dasharray:none;stroke-opacity:1"
       transform="matrix(1.3333333,0,0,-1.3333333,132.01733,135.78933)" />
    <path
       id="path31"
       d="m 30.43033,0 c 0,1.1507 -0.93283,2.08351 -2.08353,2.08351 -1.1507,0 -2.08352,-0.93281 -2.08352,-2.08351 0,-1.1507 0.93282,-2.08351 2.08352,-2.08351 1.1507,0 2.08353,0.93281 2.08353,2.08351 z"
       style="fill:none;stroke:#0000ff;stroke-width:0.79701;stroke-linecap:butt;stroke-linejoin:miter;stroke-miterlimit:10;stroke-dasharray:none;stroke-opacity:1"
       transform="matrix(1.3333333,0,0,-1.3333333,132.01733,135.78933)" />
    <path
       id="path32"
       d="M 28.3468,28.3468 H 54.61008"
       style="fill:none;stroke:#0000ff;stroke-width:0.79701;stroke-linecap:butt;stroke-linejoin:miter;stroke-miterlimit:10;stroke-dasharray:none;stroke-opacity:1"
       transform="matrix(1.3333333,0,0,-1.3333333,132.01733,135.78933)" />
    <path
       id="path33"
       d="m 30.43033,28.3468 c 0,1.1507 -0.93283,2.08353 -2.08353,2.08353 -1.1507,0 -2.08352,-0.93283 -2.08352,-2.08353 0,-1.1507 0.93282,-2.08352 2.08352,-2.08352 1.1507,0 2.08353,0.93282 2.08353,2.08352 z"
       style="fill:#0000ff;fill-opacity:1;fill-rule:nonzero;stroke:#0000ff;stroke-width:0.79701;stroke-linecap:butt;stroke-linejoin:miter;stroke-miterlimit:10;stroke-dasharray:none;stroke-opacity:1"
       transform="matrix(1.3333333,0,0,-1.3333333,132.01733,135.78933)" />
    <path
       id="path34"
       d="m 58.77713,28.3468 c 0,1.1507 -0.93282,2.08353 -2.08351,2.08353 -1.15071,0 -2.08353,-0.93283 -2.08353,-2.08353 0,-1.1507 0.93282,-2.08352 2.08353,-2.08352 1.15069,0 2.08351,0.93282 2.08351,2.08352 z"
       style="fill:none;stroke:#0000ff;stroke-width:0.79701;stroke-linecap:butt;stroke-linejoin:miter;stroke-miterlimit:10;stroke-dasharray:none;stroke-opacity:1"
       transform="matrix(1.3333333,0,0,-1.3333333,132.01733,135.78933)" />
    <path
       id="path35"
       d="M 56.69362,56.69362 H 82.95688"
       style="fill:none;stroke:#0000ff;stroke-width:0.79701;stroke-linecap:butt;stroke-linejoin:miter;stroke-miterlimit:10;stroke-dasharray:none;stroke-opacity:1"
       transform="matrix(1.3333333,0,0,-1.3333333,132.01733,135.78933)" />
    <path
       id="path36"
       d="m 58.77713,56.69362 c 0,1.15069 -0.93282,2.08351 -2.08351,2.08351 -1.15071,0 -2.08353,-0.93282 -2.08353,-2.08351 0,-1.15071 0.93282,-2.08353 2.08353,-2.08353 1.15069,0 2.08351,0.93282 2.08351,2.08353 z"
       style="fill:#0000ff;fill-opacity:1;fill-rule:nonzero;stroke:#0000ff;stroke-width:0.79701;stroke-linecap:butt;stroke-linejoin:miter;stroke-miterlimit:10;stroke-dasharray:none;stroke-opacity:1"
       transform="matrix(1.3333333,0,0,-1.3333333,132.01733,135.78933)" />
    <path
       id="path37"
       d="m 87.12395,56.69362 c 0,1.15069 -0.93283,2.08351 -2.08353,2.08351 -1.1507,0 -2.08352,-0.93282 -2.08352,-2.08351 0,-1.15071 0.93282,-2.08353 2.08352,-2.08353 1.1507,0 2.08353,0.93282 2.08353,2.08353 z"
       style="fill:none;stroke:#0000ff;stroke-width:0.79701;stroke-linecap:butt;stroke-linejoin:miter;stroke-miterlimit:10;stroke-dasharray:none;stroke-opacity:1"
       transform="matrix(1.3333333,0,0,-1.3333333,132.01733,135.78933)" />
    <path
       id="path38"
       d="m 87.12395,85.04042 c 0,1.1507 -0.93283,2.08353 -2.08353,2.08353 -1.1507,0 -2.08352,-0.93283 -2.08352,-2.08353 0,-1.1507 0.93282,-2.08352 2.08352,-2.08352 1.1507,0 2.08353,0.93282 2.08353,2.08352 z"
       style="fill:#0000ff;fill-opacity:1;fill-rule:nonzero;stroke:#0000ff;stroke-width:0.79701;stroke-linecap:butt;stroke-linejoin:miter;stroke-miterlimit:10;stroke-dasharray:none;stroke-opacity:1"
       transform="matrix(1.3333333,0,0,-1.3333333,132.01733,135.78933)" />
    <path
       id="path39"
       d="M 0,0.99628 V -2.98883"
       style="fill:none;stroke:#000000;stroke-width:0.3985;stroke-linecap:butt;stroke-linejoin:miter;stroke-miterlimit:10;stroke-dasharray:none;stroke-opacity:1"
       transform="matrix(1.3333333,0,0,-1.3333333,132.01733,135.78933)" />
    <path
       id="path40"
       d="m 4.5815391,-3.1869922 c 0,-0.796875 -0.046875,-1.59375 -0.3984375,-2.3320312 -0.4570313,-0.9609375 -1.2773438,-1.1132813 -1.6875,-1.1132813 -0.5976563,0 -1.3359375,0.2578125 -1.73437504,1.1835938 -0.328125,0.6914062 -0.375,1.4648437 -0.375,2.2617187 0,0.75 0.046875,1.640625 0.4453125,2.40234376 0.43359374,0.80859375 1.16015624,1.0078125 1.65234374,1.0078125 0.5390625,0 1.2890625,-0.2109375 1.734375,-1.16015625 C 4.5346641,-1.6283984 4.5815391,-2.4018359 4.5815391,-3.1869922 Z M 2.4838828,5.078125e-4 c -0.3867187,0 -0.984375,-0.2460937525 -1.1601562,-1.2070312125 -0.1054688,-0.5976563 -0.1054688,-1.5117188 -0.1054688,-2.0976563 0,-0.6445312 0,-1.3007812 0.082031,-1.8398437 0.1875,-1.1835938 0.9257812,-1.265625 1.1835937,-1.265625 0.328125,0 0.984375,0.1757812 1.171875,1.1601562 0.09375,0.5625 0.09375,1.3125 0.09375,1.9453125 0,0.75 0,1.4179688 -0.1054687,2.0625 C 3.4916953,-0.30417969 2.9291953,5.078125e-4 2.4838828,5.078125e-4 Z m 0,0"
       style="fill:#000000;fill-opacity:1;fill-rule:nonzero;stroke:none"
       aria-label="0"
       transform="matrix(1.3333333,0,0,1.3333333,123.028,153.02667)" />
    <path
       id="path41"
       d="M 28.3468,0.99628 V -2.98883"
       style="fill:none;stroke:#000000;stroke-width:0.3985;stroke-linecap:butt;stroke-linejoin:miter;stroke-miterlimit:10;stroke-dasharray:none;stroke-opacity:1"
       transform="matrix(1.3333333,0,0,-1.3333333,132.01733,135.78933)" />
    <path
       id="path42"
       d="m 2.9308516,-6.3754922 c 0,-0.234375 0,-0.2578125 -0.234375,-0.2578125 -0.609375,0.6328125 -1.4882813,0.6328125 -1.80468754,0.6328125 v 0.3164063 c 0.19921874,0 0.78515624,0 1.30078124,-0.2578125 v 5.15624996 c 0,0.3515625 -0.035156,0.48046875 -0.9257812,0.48046875 H 0.95038281 V -4.921875e-4 C 1.3019453,-0.03564844 2.1574141,-0.03564844 2.5558516,-0.03564844 c 0.3984375,0 1.265625,0 1.6171875,0.0351562525 V -0.30517969 H 3.8566328 c -0.9023437,0 -0.9257812,-0.1171875 -0.9257812,-0.48046875 z m 0,0"
       style="fill:#000000;fill-opacity:1;fill-rule:nonzero;stroke:none"
       aria-label="1"
       transform="matrix(1.3333333,0,0,1.3333333,160.82267,153.028)" />
    <path
       id="path43"
       d="M 0.99628,28.3468 H -2.98883"
       style="fill:none;stroke:#000000;stroke-width:0.3985;stroke-linecap:butt;stroke-linejoin:miter;stroke-miterlimit:10;stroke-dasharray:none;stroke-opacity:1"
       transform="matrix(1.3333333,0,0,-1.3333333,132.01733,135.78933)" />
    <path
       id="path44"
       d="m 2.9311016,-6.3759219 c 0,-0.234375 0,-0.2578125 -0.234375,-0.2578125 -0.609375,0.6328125 -1.4882813,0.6328125 -1.80468754,0.6328125 v 0.3164063 c 0.19921874,0 0.78515624,0 1.30078124,-0.2578125 v 5.15624997 c 0,0.3515625 -0.035156,0.48046875 -0.9257812,0.48046875 H 0.95063281 V -9.21875e-4 C 1.3021953,-0.03607813 2.1576641,-0.03607813 2.5561016,-0.03607813 c 0.3984375,0 1.265625,0 1.6171875,0.035156255 V -0.30560938 H 3.8568828 c -0.9023437,0 -0.9257812,-0.1171875 -0.9257812,-0.48046875 z m 0,0"
       style="fill:#000000;fill-opacity:1;fill-rule:nonzero;stroke:none"
       aria-label="1"
       transform="matrix(1.3333333,0,0,1.3333333,116.69733,102.27467)" />
    <g
       id="g44"
       aria-label="foor()anditsrelationshipwithidentity()."
       transform="matrix(1.3333333,0,0,1.3333333,4.4266667,282.72933)">
      <path
         id="path45"
         d="m 3.8196484,-3.9835234 v 3.22265621 c 0,0.45703125 -0.1171875,0.45703125 -0.7851562,0.45703125 V 8.515625e-4 C 3.3626172,-0.01086719 3.8899609,-0.03430469 4.1477734,-0.03430469 c 0.2460938,0 0.7382813,0.0234375 1.1015625,0.0351562525 V -0.30383594 c -0.6679687,0 -0.7734375,0 -0.7734375,-0.45703125 V -6.9132109 l -0.3632812,0.058594 c -0.035156,0 -0.046875,-0.011719 -0.09375,-0.023437 -0.3164063,-0.140625 -0.7265625,-0.140625 -0.8320313,-0.140625 -1.0429687,0 -2.1328125,0.5507813 -2.1328125,1.59375 v 1.1367188 H 0.26886719 v 0.3046875 H 1.0540234 v 3.22265621 c 0,0.45703125 -0.10546871,0.45703125 -0.77343746,0.45703125 V 8.515625e-4 C 0.60871094,-0.01086719 1.1360547,-0.03430469 1.3821484,-0.03430469 c 0.2460938,0 0.7382813,0.0234375 1.1132813,0.0351562525 V -0.30383594 c -0.6679688,0 -0.7851563,0 -0.7851563,-0.45703125 V -3.9835234 Z m 0,-0.3046875 H 1.6868359 v -1.125 c 0,-0.9257813 0.75,-1.3945313 1.4882813,-1.3945313 0.09375,0 0.3632812,0 0.6445312,0.09375 -0.09375,0.035156 -0.2578125,0.140625 -0.2578125,0.3984375 0,0.1757813 0.082031,0.328125 0.2578125,0.3867188 z m 6.4042966,2.15625 c 0,-1.2773438 -0.9960934,-2.3320313 -2.1914059,-2.3320313 -1.2539063,0 -2.2148438,1.0898438 -2.2148438,2.3320313 0,1.28906246 1.03125,2.23828121 2.203125,2.23828121 1.2070313,0 2.2031247,-0.97265625 2.2031247,-2.23828121 z m -2.1914059,1.99218746 c -0.4335938,0 -0.8671875,-0.2109375 -1.1367188,-0.66796875 C 6.6380078,-1.2413359 6.6380078,-1.8507109 6.6380078,-2.2139922 c 0,-0.3867187 0,-0.9257812 0.2460938,-1.359375 0.2695312,-0.4570312 0.7382812,-0.6679687 1.1367187,-0.6679687 0.4335938,0 0.8671875,0.2226562 1.125,0.6445312 0.2578125,0.4335938 0.2578125,1.0078125 0.2578125,1.3828125 0,0.3632813 0,0.9023438 -0.2226562,1.33593751 -0.2226563,0.4453125 -0.65625,0.73828125 -1.1484375,0.73828125 z M 15.482734,-2.1319609 c 0,-1.2773438 -0.996093,-2.3320313 -2.191406,-2.3320313 -1.253906,0 -2.214844,1.0898438 -2.214844,2.3320313 0,1.28906246 1.03125,2.23828121 2.203125,2.23828121 1.207032,0 2.203125,-0.97265625 2.203125,-2.23828121 z m -2.191406,1.99218746 c -0.433594,0 -0.867187,-0.2109375 -1.136719,-0.66796875 -0.257812,-0.43359371 -0.257812,-1.04296871 -0.257812,-1.40625001 0,-0.3867187 0,-0.9257812 0.246094,-1.359375 0.269531,-0.4570312 0.738281,-0.6679687 1.136718,-0.6679687 0.433594,0 0.867188,0.2226562 1.125,0.6445312 0.257813,0.4335938 0.257813,1.0078125 0.257813,1.3828125 0,0.3632813 0,0.9023438 -0.222656,1.33593751 -0.222657,0.4453125 -0.65625,0.73828125 -1.148438,0.73828125 z m 4.148438,-3.16406246 v -1.1015625 l -1.382813,0.1171875 v 0.3046875 c 0.691406,0 0.773438,0.070312 0.773438,0.5625 v 2.66015621 c 0,0.45703125 -0.105469,0.45703125 -0.773438,0.45703125 V 8.515625e-4 C 16.443672,-0.01086719 16.912422,-0.03430469 17.193672,-0.03430469 c 0.398437,0 0.867187,0 1.265625,0.0351562525 V -0.30383594 h -0.210938 c -0.738281,0 -0.761718,-0.1171875 -0.761718,-0.46875 V -2.3077422 c 0,-0.984375 0.421875,-1.875 1.183593,-1.875 0.05859,0 0.08203,0 0.105469,0.011719 -0.03516,0.011719 -0.234375,0.1289062 -0.234375,0.3867187 0,0.28125 0.210938,0.4335938 0.433594,0.4335938 0.175781,0 0.421875,-0.1289063 0.421875,-0.4453125 0,-0.3164063 -0.304688,-0.609375 -0.726563,-0.609375 -0.738281,0 -1.089843,0.6679687 -1.230468,1.1015623 z m 5.53125,5.6953125 c 0,-0.035156 0,-0.046875 -0.164063,-0.2226563 -1.242187,-1.25390624 -1.570312,-3.12890624 -1.570312,-4.6640625 0,-1.7226562 0.386718,-3.4570312 1.605468,-4.7109375 0.128907,-0.1171875 0.128907,-0.1289062 0.128907,-0.1640625 0,-0.070312 -0.03516,-0.1054687 -0.09375,-0.1054687 -0.105469,0 -0.996094,0.6796875 -1.582032,1.9453125 -0.515625,1.1015625 -0.632812,2.203125 -0.632812,3.0351562 0,0.7851563 0.117187,1.99218751 0.65625,3.11718751 0.597656,1.21874999 1.453125,1.87499999 1.558594,1.87499999 0.05859,0 0.09375,-0.035156 0.09375,-0.1054687 z m 3.46582,-4.8867188 c 0,-0.7734375 -0.117188,-1.9804687 -0.65625,-3.1054687 -0.597656,-1.21875 -1.464844,-1.875 -1.558594,-1.875 -0.05859,0 -0.105469,0.046875 -0.105469,0.1054687 0,0.035156 0,0.046875 0.199219,0.234375 0.972656,0.984375 1.535156,2.5664063 1.535156,4.640625 0,1.71093751 -0.363281,3.45703126 -1.59375,4.7226563 -0.140625,0.1171875 -0.140625,0.1289062 -0.140625,0.1640625 0,0.058594 0.04687,0.1054687 0.105469,0.1054687 0.09375,0 0.996094,-0.6796875 1.582031,-1.94531249 0.503907,-1.1015625 0.632813,-2.20312501 0.632813,-3.04687501 z m 0,0"
         style="fill:#000000;fill-opacity:1;fill-rule:nonzero;stroke:none" />
      <path
         id="path46"
         d="m 34.719062,-2.8819609 c 0,-1.0078125 -0.726562,-1.7109375 -1.640625,-1.7109375 -0.644531,0 -1.101562,0.1640625 -1.570312,0.4335937 l 0.07031,0.65625 c 0.515625,-0.375 1.007813,-0.5039062 1.5,-0.5039062 0.46875,0 0.867188,0.3984375 0.867188,1.1367187 v 0.4335938 c -1.5,0.011719 -2.765625,0.4335937 -2.765625,1.3125 0,0.42187496 0.269531,1.23046871 1.136719,1.23046871 0.140625,0 1.078125,-0.01171875 1.652343,-0.46875 V 8.515625e-4 h 0.75 z m -0.773437,1.5703125 c 0,0.1875 0,0.43359371 -0.339844,0.62109371 -0.292969,0.1875 -0.667969,0.1875 -0.773437,0.1875 -0.480469,0 -0.925782,-0.22265625 -0.925782,-0.64453121 0,-0.6914063 1.605469,-0.7617188 2.039063,-0.7851563 z m 5.923828,-1.6523438 c 0,-0.65625 -0.152344,-1.5703125 -1.371094,-1.5703125 -0.890625,0 -1.382812,0.6796875 -1.441406,0.7617188 V -4.4874297 H 36.342109 V 8.515625e-4 h 0.773438 V -2.4366484 c 0,-0.65625 0.246094,-1.4882813 1.007812,-1.4882813 0.960938,0 0.960938,0.703125 0.960938,1.03125 V 8.515625e-4 h 0.785156 z m 5.135742,-3.9492187 h -0.75 v 2.9296875 c -0.527343,-0.4335938 -1.078125,-0.5507813 -1.453125,-0.5507813 -0.984375,0 -1.757812,1.0429688 -1.757812,2.3203125 0,1.31250001 0.761719,2.32031251 1.710937,2.32031251 0.328125,0 0.914063,-0.08203125 1.476563,-0.62109375 V 8.515625e-4 h 0.773437 z m -0.773437,5.53125 c 0,0.140625 -0.01172,0.3164062 -0.328125,0.60937496 -0.234375,0.19921875 -0.480469,0.26953125 -0.738281,0.26953125 -0.621094,0 -1.347657,-0.45703125 -1.347657,-1.69921871 0,-1.3125 0.855469,-1.7226563 1.441407,-1.7226563 0.445312,0 0.75,0.234375 0.972656,0.5507813 z m 6.544922,-5.390625 h -0.890625 v 0.890625 h 0.890625 z m -0.07031,2.3554687 h -0.75 V 8.515625e-4 h 0.75 z m 2.566406,0.5742188 h 1.40625 v -0.5742188 h -1.40625 v -1.265625 H 52.58137 v 1.265625 h -0.86719 v 0.5742188 h 0.84375 v 2.6601562 c 0,0.59765626 0.128906,1.28906251 0.820312,1.28906251 0.703125,0 1.207031,-0.24609375 1.453125,-0.375 l -0.152344,-0.5859375 c -0.257812,0.2109375 -0.585937,0.328125 -0.902343,0.328125 -0.363282,0 -0.503907,-0.3046875 -0.503907,-0.83203121 z m 5.273438,-0.4335938 c -0.527344,-0.234375 -0.925781,-0.3164062 -1.441406,-0.3164062 -0.246094,0 -1.652344,0 -1.652344,1.3007812 0,0.4921875 0.292969,0.8085938 0.539062,0.9960938 0.304688,0.2226562 0.527344,0.2695312 1.078125,0.375 0.351563,0.070312 0.9375,0.1875 0.9375,0.7148437 0,0.69140626 -0.785156,0.69140626 -0.9375,0.69140626 -0.808593,0 -1.371093,-0.375 -1.546875,-0.49218746 l -0.117187,0.67968746 c 0.316406,0.1640625 0.867187,0.43359375 1.675781,0.43359375 0.175781,0 0.726563,0 1.148438,-0.31640625 0.316406,-0.234375 0.480468,-0.6328125 0.480468,-1.06640626 0,-0.5507812 -0.363281,-0.8789062 -0.386718,-0.9140625 -0.386719,-0.3515625 -0.65625,-0.4101562 -1.160157,-0.5039062 -0.539062,-0.1054688 -1.007812,-0.1992188 -1.007812,-0.6914063 0,-0.6210937 0.726562,-0.6210937 0.855469,-0.6210937 0.316406,0 0.84375,0.046875 1.40625,0.3867187 z m 5.282226,2.1445313 c 0,-0.9960938 0.726563,-1.7109375 1.699219,-1.734375 v -0.6679688 c -0.890625,0.011719 -1.429687,0.5039063 -1.746094,0.9609375 V -4.4874297 H 63.090156 V 8.515625e-4 h 0.738281 z m 5.970704,-0.046875 c 0,-0.3398438 -0.01172,-1.0898438 -0.398438,-1.6875 -0.410156,-0.6210938 -1.019531,-0.7265625 -1.371094,-0.7265625 -1.113281,0 -2.003906,1.0546875 -2.003906,2.34375 0,1.31249996 0.949219,2.35546871 2.144531,2.35546871 0.632813,0 1.195313,-0.234375 1.59375,-0.515625 l -0.07031,-0.64453121 c -0.621094,0.51562496 -1.277344,0.55078121 -1.511719,0.55078121 -0.796875,0 -1.429687,-0.70312501 -1.464844,-1.67578121 z m -3.023438,-0.5507813 c 0.152344,-0.7617187 0.679688,-1.2539062 1.253906,-1.2539062 0.515625,0 1.066407,0.3398437 1.195313,1.2539062 z m 4.883789,-4.1835937 h -0.75 V 8.515625e-4 h 0.75 z m 4.795899,4.03125 c 0,-1.0078125 -0.726563,-1.7109375 -1.640625,-1.7109375 -0.644532,0 -1.101563,0.1640625 -1.570313,0.4335937 l 0.07031,0.65625 c 0.515625,-0.375 1.007812,-0.5039062 1.5,-0.5039062 0.46875,0 0.867187,0.3984375 0.867187,1.1367187 v 0.4335938 c -1.5,0.011719 -2.765625,0.4335937 -2.765625,1.3125 0,0.42187496 0.269531,1.23046871 1.136719,1.23046871 0.140625,0 1.078125,-0.01171875 1.652344,-0.46875 V 8.515625e-4 h 0.75 z m -0.773438,1.5703125 c 0,0.1875 0,0.43359371 -0.339844,0.62109371 -0.292968,0.1875 -0.667968,0.1875 -0.773437,0.1875 -0.480469,0 -0.925781,-0.22265625 -0.925781,-0.64453121 0,-0.6914063 1.605468,-0.7617188 2.039062,-0.7851563 z m 3.333984,-2.53125 h 1.40625 v -0.5742188 h -1.40625 v -1.265625 h -0.691406 v 1.265625 h -0.867187 v 0.5742188 h 0.84375 v 2.6601562 c 0,0.59765626 0.128906,1.28906251 0.820312,1.28906251 0.703125,0 1.207031,-0.24609375 1.453125,-0.375 l -0.152344,-0.5859375 c -0.257812,0.2109375 -0.585937,0.328125 -0.902343,0.328125 -0.363282,0 -0.503907,-0.3046875 -0.503907,-0.83203121 z m 3.480469,-2.9296875 h -0.890625 v 0.890625 h 0.890625 z m -0.07031,2.3554687 h -0.75 V 8.515625e-4 h 0.75 z m 5.499023,2.2265625 c 0,-1.3359375 -0.996094,-2.4023437 -2.179687,-2.4023437 -1.230469,0 -2.191407,1.1015625 -2.191407,2.4023437 0,1.31250001 1.007813,2.29687501 2.179688,2.29687501 1.195312,0 2.191406,-1.0078125 2.191406,-2.29687501 z m -2.191406,1.66406251 c -0.691406,0 -1.40625,-0.56250001 -1.40625,-1.76953121 0,-1.1953125 0.75,-1.6875 1.40625,-1.6875 0.691406,0 1.40625,0.515625 1.40625,1.6875 0,1.1835937 -0.667969,1.76953121 -1.40625,1.76953121 z m 6.832031,-2.43750001 c 0,-0.65625 -0.152344,-1.5703125 -1.371094,-1.5703125 -0.890625,0 -1.382812,0.6796875 -1.441406,0.7617188 V -4.4874297 H 89.038398 V 8.515625e-4 h 0.773438 V -2.4366484 c 0,-0.65625 0.246094,-1.4882813 1.007812,-1.4882813 0.960938,0 0.960938,0.703125 0.960938,1.03125 V 8.515625e-4 h 0.785156 z m 4.233399,-1.3125 c -0.527344,-0.234375 -0.925782,-0.3164062 -1.441407,-0.3164062 -0.246093,0 -1.652343,0 -1.652343,1.3007812 0,0.4921875 0.292968,0.8085938 0.539062,0.9960938 0.304688,0.2226562 0.527344,0.2695312 1.078125,0.375 0.351563,0.070312 0.9375,0.1875 0.9375,0.7148437 0,0.69140626 -0.785156,0.69140626 -0.9375,0.69140626 -0.808594,0 -1.371094,-0.375 -1.546875,-0.49218746 l -0.117187,0.67968746 c 0.316406,0.1640625 0.867187,0.43359375 1.675781,0.43359375 0.175781,0 0.726562,0 1.148437,-0.31640625 0.316407,-0.234375 0.480469,-0.6328125 0.480469,-1.06640626 0,-0.5507812 -0.363281,-0.8789062 -0.386719,-0.9140625 -0.386718,-0.3515625 -0.65625,-0.4101562 -1.160156,-0.5039062 -0.539062,-0.1054688 -1.007812,-0.1992188 -1.007812,-0.6914063 0,-0.6210937 0.726562,-0.6210937 0.855468,-0.6210937 0.316407,0 0.84375,0.046875 1.40625,0.3867187 z m 4.731444,1.3125 c 0,-0.65625 -0.15235,-1.5703125 -1.3711,-1.5703125 -0.609368,0 -1.089837,0.3164063 -1.406243,0.7148438 v -3.09375 h -0.75 V 8.515625e-4 H 98.77668 V -2.4366484 c 0,-0.65625 0.246093,-1.4882813 1.007812,-1.4882813 0.960938,0 0.960938,0.703125 0.960938,1.03125 V 8.515625e-4 h 0.78516 z m 2.44043,-3.8085937 h -0.89063 v 0.890625 h 0.89063 z m -0.0703,2.3554687 h -0.75 V 8.515625e-4 h 0.75 z m 2.417,3.96093751 c 0.30469,0.29296875 0.75,0.5625 1.34765,0.5625 0.96094,0 1.83985,-0.97265625 1.83985,-2.33203121 0,-1.1953125 -0.63281,-2.3085938 -1.58204,-2.3085938 -0.59765,0 -1.17187,0.2109375 -1.64062,0.5976563 v -0.4804688 h -0.73828 v 6.3515625 h 0.77344 z m 0,-2.85937501 c 0.23437,-0.3515625 0.63282,-0.5742187 1.05469,-0.5742187 0.76171,0 1.35938,0.75 1.35938,1.6640625 0,1.03125 -0.71485,1.72265621 -1.45313,1.72265621 -0.39844,0 -0.65625,-0.19921875 -0.85547,-0.45703125 C 106.3177,-1.1124297 106.3177,-1.1358672 106.3177,-1.3116484 Z m 13.52636,-1.1015625 h -0.72656 l -0.64453,2.109375 c -0.10547,0.3515625 -0.39844,1.34765626 -0.45703,1.76953126 h -0.0117 c -0.0352,-0.3046875 -0.28125,-1.19531246 -0.45703,-1.75781246 l -0.64453,-2.1210938 h -0.69141 l -0.57422,1.8632813 c -0.10547,0.3515625 -0.44531,1.5 -0.49219,2.00390621 -0.0586,-0.48046871 -0.38672,-1.60546871 -0.53906,-2.14453121 l -0.51562,-1.7226563 h -0.76172 l 1.35937,4.4179687625 h 0.79688 c 0.0469,-0.1640625025 0.39843,-1.2773437625 0.60937,-2.0507812625 0.14063,-0.4570312 0.42188,-1.4414062 0.44531,-1.8164062 h 0.0117 c 0.0234,0.28125 0.1875,0.9726562 0.32813,1.3945312 l 0.72656,2.4726562625 h 0.86719 z m 1.78125,-2.3554687 h -0.89062 v 0.890625 h 0.89062 z m -0.0703,2.3554687 h -0.75 V 8.515625e-4 h 0.75 z m 2.56641,0.5742188 h 1.40625 v -0.5742188 h -1.40625 v -1.265625 H 123.43 v 1.265625 h -0.86719 v 0.5742188 h 0.84375 v 2.6601562 c 0,0.59765626 0.12891,1.28906251 0.82031,1.28906251 0.70313,0 1.20704,-0.24609375 1.45313,-0.375 l -0.15234,-0.5859375 c -0.25782,0.2109375 -0.58594,0.328125 -0.90235,0.328125 -0.36328,0 -0.5039,-0.3046875 -0.5039,-0.83203121 z m 6.1875,0.8789062 c 0,-0.65625 -0.15235,-1.5703125 -1.3711,-1.5703125 -0.60937,0 -1.08984,0.3164063 -1.40625,0.7148438 v -3.09375 h -0.75 V 8.515625e-4 H 127.555 V -2.4366484 c 0,-0.65625 0.24609,-1.4882813 1.00781,-1.4882813 0.96094,0 0.96094,0.703125 0.96094,1.03125 V 8.515625e-4 h 0.78516 z m 0,0"
         style="fill:#000000;fill-opacity:1;fill-rule:nonzero;stroke:none" />
      <path
         id="path47"
         d="m 136.19758,-4.4053984 -1.39453,0.1171875 v 0.3046875 c 0.65625,0 0.73828,0.058594 0.73828,0.5507812 v 2.67187501 c 0,0.45703125 -0.10547,0.45703125 -0.77344,0.45703125 V 8.515625e-4 c 0.31641,-0.0117187525 0.85547,-0.0351562525 1.10156,-0.0351562525 0.33985,0 0.69141,0.0234375 1.03125,0.0351562525 V -0.30383594 c -0.65625,0 -0.70312,-0.0585938 -0.70312,-0.4453125 z m 0.0469,-1.734375 c 0,-0.3164063 -0.24609,-0.5273438 -0.52734,-0.5273438 -0.31641,0 -0.52734,0.2695313 -0.52734,0.5273438 0,0.2695312 0.21093,0.5273437 0.52734,0.5273437 0.28125,0 0.52734,-0.1992187 0.52734,-0.5273437 z m 4.74903,5.58984371 v 0.65625 L 142.45832,8.515625e-4 V -0.30383594 c -0.70312,0 -0.77344,-0.0703125 -0.77344,-0.5625 V -6.9132109 l -1.4414,0.1054687 v 0.3164063 c 0.70312,0 0.78515,0.070312 0.78515,0.5507812 v 2.15625 c -0.29297,-0.3632812 -0.72656,-0.6210937 -1.26562,-0.6210937 -1.17188,0 -2.21485,0.984375 -2.21485,2.2617187 0,1.26562501 0.97266,2.25000001 2.10938,2.25000001 0.64453,0 1.08984,-0.33984375 1.33594,-0.65625 z m 0,-2.67187501 v 2.0507813 c 0,0.17578121 0,0.19921871 -0.10547,0.36328121 -0.30469,0.48046875 -0.75,0.703125 -1.1836,0.703125 -0.44531,0 -0.79687,-0.2578125 -1.04296,-0.64453125 -0.25782,-0.41015626 -0.29297,-0.97265626 -0.29297,-1.38281246 0,-0.3632813 0.0234,-0.9609375 0.3164,-1.4179688 0.21094,-0.3046875 0.58594,-0.6328125 1.125,-0.6328125 0.35157,0 0.76172,0.1523438 1.07813,0.5976563 0.10547,0.1640625 0.10547,0.1875 0.10547,0.3632812 z m 2.8623,0.7148438 c 0.0586,-1.4882813 0.90234,-1.734375 1.24219,-1.734375 1.01953,0 1.125,1.3476562 1.125,1.734375 z m -0.0117,0.2109375 h 2.78906 c 0.21094,0 0.2461,0 0.2461,-0.2109375 0,-0.984375 -0.53906,-1.9570313 -1.78125,-1.9570313 -1.16016,0 -2.07422,1.03125 -2.07422,2.2734375 0,1.33593751 1.04297,2.29687501 2.19141,2.29687501 1.21875,0 1.66406,-1.1015625 1.66406,-1.28906251 0,-0.1054687 -0.082,-0.1171875 -0.12891,-0.1171875 -0.0937,0 -0.11719,0.058594 -0.1289,0.140625 -0.35157,1.01953126 -1.25391,1.01953126 -1.34766,1.01953126 -0.50391,0 -0.90234,-0.29296875 -1.125,-0.66796875 -0.30469,-0.48046871 -0.30469,-1.13671871 -0.30469,-1.48828121 z m 4.42969,-1.125 v 2.66015621 c 0,0.45703125 -0.11719,0.45703125 -0.78516,0.45703125 V 8.515625e-4 c 0.35157,-0.0117187525 0.85547,-0.0351562525 1.125,-0.0351562525 0.25782,0 0.78516,0.0234375 1.11328,0.0351562525 V -0.30383594 c -0.65625,0 -0.77343,0 -0.77343,-0.45703125 V -2.5889922 c 0,-1.03125 0.71484,-1.59375 1.34765,-1.59375 0.6211,0 0.73828,0.5390625 0.73828,1.1015625 v 2.32031251 c 0,0.45703125 -0.11718,0.45703125 -0.77343,0.45703125 V 8.515625e-4 c 0.33984,-0.0117187525 0.85547,-0.0351562525 1.125,-0.0351562525 0.25781,0 0.77343,0.0234375 1.11328,0.0351562525 V -0.30383594 c -0.51563,0 -0.77344,0 -0.78516,-0.3046875 V -2.5069609 c 0,-0.8554688 0,-1.171875 -0.30469,-1.5234375 -0.14062,-0.1757813 -0.46875,-0.375 -1.04296,-0.375 -0.72657,0 -1.19532,0.4335937 -1.47657,1.0546875 v -1.0546875 l -1.40625,0.1171875 v 0.3046875 c 0.70313,0 0.78516,0.070312 0.78516,0.5625 z m 5.87695,-0.5625 h 1.42969 v -0.3046875 h -1.42969 v -1.8398438 h -0.24609 c -0.0117,0.8203125 -0.31641,1.8867188 -1.28906,1.921875 v 0.2226563 h 0.84375 v 2.7539062 c 0,1.21875001 0.92578,1.33593751 1.28906,1.33593751 0.70312,0 0.98437,-0.703125 0.98437,-1.33593751 v -0.5742187 h -0.24609 v 0.5507812 c 0,0.73828126 -0.30469,1.11328126 -0.66797,1.11328126 -0.66797,0 -0.66797,-0.90234376 -0.66797,-1.07812496 z m 3.90821,-0.421875 -1.39454,0.1171875 v 0.3046875 c 0.65625,0 0.73829,0.058594 0.73829,0.5507812 v 2.67187501 c 0,0.45703125 -0.10547,0.45703125 -0.77344,0.45703125 V 8.515625e-4 c 0.3164,-0.0117187525 0.85547,-0.0351562525 1.10156,-0.0351562525 0.33984,0 0.69141,0.0234375 1.03125,0.0351562525 V -0.30383594 c -0.65625,0 -0.70312,-0.0585938 -0.70312,-0.4453125 z m 0.0469,-1.734375 c 0,-0.3164063 -0.24609,-0.5273438 -0.52734,-0.5273438 -0.31641,0 -0.52735,0.2695313 -0.52735,0.5273438 0,0.2695312 0.21094,0.5273437 0.52735,0.5273437 0.28125,0 0.52734,-0.1992187 0.52734,-0.5273437 z m 2.68652,2.15625 h 1.42969 v -0.3046875 h -1.42969 v -1.8398438 h -0.24609 c -0.0117,0.8203125 -0.31641,1.8867188 -1.28906,1.921875 v 0.2226563 h 0.84375 v 2.7539062 c 0,1.21875001 0.92578,1.33593751 1.28906,1.33593751 0.70313,0 0.98438,-0.703125 0.98438,-1.33593751 v -0.5742187 h -0.2461 v 0.5507812 c 0,0.73828126 -0.30469,1.11328126 -0.66797,1.11328126 -0.66797,0 -0.66797,-0.90234376 -0.66797,-1.07812496 z m 6.00879,0.6328125 c 0.25782,-0.6210938 0.76172,-0.6328125 0.92578,-0.6328125 v -0.3046875 c -0.23437,0.011719 -0.51562,0.023437 -0.75,0.023437 -0.17578,0 -0.64453,-0.023437 -0.86718,-0.023437 v 0.3046875 c 0.30468,0.011719 0.46875,0.1757812 0.46875,0.4335937 0,0.09375 -0.0117,0.1171875 -0.0586,0.234375 l -1.00781,2.44921876 -1.10156,-2.68359376 c -0.0469,-0.09375 -0.0586,-0.140625 -0.0586,-0.1757812 0,-0.2578125 0.36329,-0.2578125 0.55079,-0.2578125 v -0.3046875 c -0.25782,0 -0.91407,0.023437 -1.07813,0.023437 -0.26953,0 -0.66797,-0.011719 -0.97266,-0.023437 v 0.3046875 c 0.48047,0 0.66797,0 0.8086,0.3515625 l 1.5,3.6328124625 C 165.10195,0.12975781 164.96133,0.45788281 164.90274,0.58678906 164.6918,1.1375703 164.41055,1.8289766 163.76602,1.8289766 c -0.0469,0 -0.26953,0 -0.46875,-0.1875 0.3164,-0.035156 0.39843,-0.2578125 0.39843,-0.4101563 0,-0.26953124 -0.19921,-0.42187499 -0.42187,-0.42187499 -0.19922,0 -0.42188,0.12890625 -0.42188,0.42187499 0,0.4570313 0.42188,0.8085938 0.91407,0.8085938 0.63281,0 1.04297,-0.5625 1.27734,-1.13671879 z m 4.41504,5.7421875 c 0,-0.035156 0,-0.046875 -0.16406,-0.2226563 -1.24219,-1.25390624 -1.57031,-3.12890624 -1.57031,-4.6640625 0,-1.7226562 0.38672,-3.4570312 1.60547,-4.7109375 0.1289,-0.1171875 0.1289,-0.1289062 0.1289,-0.1640625 0,-0.070312 -0.0351,-0.1054687 -0.0937,-0.1054687 -0.10547,0 -0.99609,0.6796875 -1.58203,1.9453125 -0.51562,1.1015625 -0.63281,2.203125 -0.63281,3.0351562 0,0.7851563 0.11719,1.99218751 0.65625,3.11718751 0.59766,1.21874999 1.45312,1.87499999 1.55859,1.87499999 0.0586,0 0.0937,-0.035156 0.0937,-0.1054687 z m 3.46582,-4.8867188 c 0,-0.7734375 -0.11718,-1.9804687 -0.65625,-3.1054687 -0.59765,-1.21875 -1.46484,-1.875 -1.55859,-1.875 -0.0586,0 -0.10547,0.046875 -0.10547,0.1054687 0,0.035156 0,0.046875 0.19922,0.234375 0.97266,0.984375 1.53516,2.5664063 1.53516,4.640625 0,1.71093751 -0.36329,3.45703126 -1.59375,4.7226563 -0.14063,0.1171875 -0.14063,0.1289062 -0.14063,0.1640625 0,0.058594 0.0469,0.1054687 0.10547,0.1054687 0.0937,0 0.99609,-0.6796875 1.58203,-1.94531249 0.50391,-1.1015625 0.63281,-2.20312501 0.63281,-3.04687501 z m 0,0"
         style="fill:#000000;fill-opacity:1;fill-rule:nonzero;stroke:none" />
      <path
         id="path48"
         d="m 177.46809,-0.83117969 h -0.83204 V 8.515625e-4 h 0.83204 z m 0,0"
         style="fill:#000000;fill-opacity:1;fill-rule:nonzero;stroke:none" />
    </g>
  </g>
</svg>
